<svg width="0" height="0" class="hidden">
  <symbol xmlns="http://www.w3.org/2000/svg" viewBox="0 0 24 24" id="Close">
    <path d="M16.95 16.95a1 1 0 01-1.414 0L12 13.414 8.464 16.95a1 1 0 01-1.414-1.414L10.586 12 7.05 8.464A1 1 0 018.464 7.05L12 10.586l3.536-3.536a1 1 0 111.414 1.414L13.414 12l3.536 3.536a1 1 0 010 1.414z"></path>
  </symbol>
  <symbol xmlns="http://www.w3.org/2000/svg" viewBox="0 0 24 24" id="Dashboard">
    <path fill-rule="evenodd" clip-rule="evenodd" d="M11 3a1 1 0 112 0v1h5a4 4 0 014 4v8a4 4 0 01-4 4h-.382l.277.553a1 1 0 01-1.79.894L15.383 20H8.618l-.724 1.447a1 1 0 11-1.788-.894L6.382 20H6a4 4 0 01-4-4V8a4 4 0 014-4h5V3zM8.023 18H6a2 2 0 01-2-2V8a2 2 0 012-2h12a2 2 0 012 2v8a2 2 0 01-2 2H8.023z"></path>
    <path fill-rule="evenodd" clip-rule="evenodd" d="M17.625 8.22a1 1 0 01.156 1.405l-4 5a1 1 0 01-1.336.207l-2.318-1.545-2.42 2.42a1 1 0 11-1.414-1.414l3-3a1 1 0 011.262-.125l2.237 1.491 3.427-4.284a1 1 0 011.406-.156z"></path>
  </symbol>
  <symbol xmlns="http://www.w3.org/2000/svg" viewBox="0 0 24 24" id="Edit">
    <path d="M17.219 4c-.341 0-.683.13-.943.39l-.943.943 3.334 3.334.942-.943a1.332 1.332 0 000-1.885L18.163 4.39a1.33 1.33 0 00-.944-.39zM14 6.667l-8 8L7 15l.333 1.667L9 17l.333 1 8-8L14 6.667zM4.768 17.435l-.743 2.104a.333.333 0 00.308.461.334.334 0 00.121-.022l2.111-.746-1.797-1.797z"></path>
  </symbol>
  <symbol xmlns="http://www.w3.org/2000/svg" viewBox="0 0 24 24" id="Lamp">
    <path fill-rule="evenodd" clip-rule="evenodd" d="M14.167 13.071l.624-.5a5 5 0 10-6.248 0l.624.5v2.262c0 .46.373.834.833.834h.833v-4.655l-1.422-1.423a.833.833 0 011.178-1.178l1.078 1.077 1.077-1.077a.833.833 0 111.179 1.178L12.5 11.512v4.655h.833c.46 0 .834-.373.834-.834v-2.262zm1.666.8v1.462c0 .74-.322 1.406-.833 1.864V19.5a2.5 2.5 0 01-2.5 2.5h-1.667a2.5 2.5 0 01-2.5-2.5v-2.303a2.494 2.494 0 01-.833-1.864v-1.462a6.667 6.667 0 118.333 0zM10 19.5v-1.667h3.333V19.5c0 .46-.373.833-.833.833h-1.667A.833.833 0 0110 19.5z"></path>
  </symbol>
  <symbol xmlns="http://www.w3.org/2000/svg" viewBox="0 0 28 28" id="Light-on">
    <path d="M5.148 2.348a.933.933 0 100 1.866.933.933 0 000-1.866zm17.704 0a.934.934 0 100 1.867.934.934 0 000-1.867zM14 2.8c-4.628 0-8.4 3.772-8.4 8.4 0 3.111 1.567 5.438 3.01 7.21.72.886 1.418 1.65 1.897 2.298.48.649.693 1.15.693 1.448v2.111c0 1.031.835 1.866 1.867 1.866a.933.933 0 101.866 0 1.866 1.866 0 001.867-1.866v-2.075c.014-.354.255-.884.746-1.546.49-.661 1.19-1.428 1.908-2.311 1.438-1.766 2.981-4.069 2.946-7.146C22.347 6.574 18.628 2.8 14 2.8zm0 1.867c3.619 0 6.491 2.912 6.533 6.544.028 2.448-1.174 4.284-2.526 5.944-.676.83-1.383 1.599-1.962 2.38-.579.78-1.073 1.599-1.112 2.584v.281h-1.866v-.244c0-.98-.487-1.787-1.058-2.558-.57-.77-1.273-1.534-1.952-2.368-1.357-1.667-2.59-3.541-2.59-6.03A6.52 6.52 0 0114 4.667zm-12.133 5.6a.933.933 0 100 1.866.933.933 0 000-1.866zm24.266 0a.933.933 0 100 1.866.933.933 0 000-1.866zM5.148 18.185a.933.933 0 100 1.867.933.933 0 000-1.867zm17.704 0a.933.933 0 100 1.867.933.933 0 000-1.867z"></path>
  </symbol>
  <symbol xmlns="http://www.w3.org/2000/svg" viewBox="0 0 24 24" id="List-left">
    <path fill-rule="evenodd" clip-rule="evenodd" d="M15.162 12h1.676c.528 0 .982 0 1.357.03.395.033.789.104 1.167.297a3 3 0 011.311 1.311c.193.378.264.772.296 1.167.031.375.031.83.031 1.356v.678c0 .527 0 .982-.03 1.356-.033.395-.104.789-.297 1.167a3 3 0 01-1.311 1.311c-.378.193-.772.264-1.167.296-.375.031-.83.031-1.357.031h-1.677c-.527 0-.981 0-1.356-.03-.395-.033-.789-.104-1.167-.297a3 3 0 01-1.311-1.311c-.193-.378-.264-.772-.296-1.167C11 17.82 11 17.365 11 16.838v-.677c0-.527 0-.982.03-1.356.033-.395.104-.789.297-1.167a3 3 0 011.311-1.311c.378-.193.772-.264 1.167-.296.375-.031.83-.031 1.357-.031zm-1.194 2.024c-.272.022-.373.06-.422.085a1 1 0 00-.437.437c-.025.05-.063.15-.085.422C13 15.25 13 15.623 13 16.2v.6c0 .577 0 .949.024 1.232.022.272.06.372.085.422a1 1 0 00.437.437c.05.025.15.063.422.085.283.023.655.024 1.232.024h1.6c.577 0 .949 0 1.232-.024.272-.022.372-.06.422-.085a1 1 0 00.437-.437c.025-.05.063-.15.085-.422C19 17.75 19 17.377 19 16.8v-.6c0-.577 0-.949-.024-1.232-.022-.272-.06-.373-.085-.422a1 1 0 00-.437-.437c-.05-.025-.15-.063-.422-.085C17.75 14 17.377 14 16.8 14h-1.6c-.577 0-.949 0-1.232.024zM6.416 3c-.38 0-.708 0-1.001.058a3 3 0 00-2.357 2.357C2.999 5.708 3 6.035 3 6.416v.168c0 .38 0 .709.058 1.001a3 3 0 002.357 2.357c.293.059.62.058 1.001.058h11.168c.38 0 .709 0 1.001-.058a3 3 0 002.357-2.357c.059-.292.058-.62.058-1.001v-.168c0-.38 0-.708-.058-1.001a3 3 0 00-2.357-2.357c-.293-.059-.62-.058-1.001-.058H6.416zm-.611 2.02c.072-.015.183-.02.695-.02h11c.513 0 .623.005.695.02a1 1 0 01.786.785c.014.072.02.183.02.695 0 .513-.006.623-.02.695a1 1 0 01-.786.786c-.072.014-.182.02-.695.02h-11c-.513 0-.623-.006-.695-.02a1 1 0 01-.786-.786C5.005 7.123 5 7.013 5 6.5c0-.513.005-.623.02-.695a1 1 0 01.785-.786zM6 12a3 3 0 00-3 3v3a3 3 0 106 0v-3a3 3 0 00-3-3zm-1 3a1 1 0 112 0v3a1 1 0 11-2 0v-3z"></path>
  </symbol>
  <symbol xmlns="http://www.w3.org/2000/svg" viewBox="0 0 24 24" id="More">
    <path d="M4 9.6a2.4 2.4 0 100 4.8 2.4 2.4 0 000-4.8zm8 0a2.4 2.4 0 100 4.8 2.4 2.4 0 000-4.8zm8 0a2.4 2.4 0 100 4.8 2.4 2.4 0 000-4.8z"></path>
  </symbol>
  <symbol xmlns="http://www.w3.org/2000/svg" viewBox="0 0 24 24" id="Plus">
    <path d="M19 12a1 1 0 01-1 1h-5v5a1 1 0 11-2 0v-5H6a1 1 0 110-2h5V6a1 1 0 112 0v5h5a1 1 0 011 1z"></path>
  </symbol>
  <symbol xmlns="http://www.w3.org/2000/svg" viewBox="0 0 24 24" id="Radar">
    <path fill-rule="evenodd" clip-rule="evenodd" d="M6.2 4h-.039c-.527 0-.981 0-1.356.03-.395.033-.789.104-1.167.297a3 3 0 00-1.311 1.311c-.193.378-.264.772-.296 1.167C2 7.18 2 7.635 2 8.161V9a1 1 0 102 0v-.8c0-.577 0-.949.024-1.232.022-.272.06-.373.085-.422a1 1 0 01.437-.437c.05-.025.15-.063.422-.085C5.25 6 5.623 6 6.2 6H7a1 1 0 100-2h-.8zm11.6 16h.038c.528 0 .982 0 1.357-.03.395-.033.789-.104 1.167-.297a3 3 0 001.311-1.311c.193-.378.264-.772.296-1.167.031-.375.031-.83.031-1.356V15a1 1 0 10-2 0v.8c0 .577 0 .949-.024 1.232-.022.272-.06.372-.085.422a1 1 0 01-.437.437c-.05.025-.15.063-.422.085C18.75 18 18.377 18 17.8 18H17a1 1 0 100 2h.8zM2 15.838V15a1 1 0 112 0v.8c0 .577 0 .949.024 1.232.022.272.06.372.085.422a1 1 0 00.437.437c.05.025.15.063.422.085C5.25 18 5.623 18 6.2 18H7a1 1 0 110 2h-.839c-.527 0-.981 0-1.356-.03-.395-.033-.789-.104-1.167-.297a3 3 0 01-1.311-1.311c-.193-.378-.264-.772-.296-1.167A17.9 17.9 0 012 15.839zM22 8.2v-.039c0-.527 0-.981-.03-1.356-.033-.395-.104-.789-.297-1.167a3 3 0 00-1.311-1.311c-.378-.193-.772-.264-1.167-.296A17.9 17.9 0 0017.839 4H17a1 1 0 100 2h.8c.577 0 .949 0 1.232.024.272.022.372.06.422.085a1 1 0 01.437.437c.025.05.063.15.085.422C20 7.25 20 7.623 20 8.2V9a1 1 0 102 0v-.8zM7 9a1 1 0 012 0v6a1 1 0 11-2 0V9zm4 0a1 1 0 112 0v4a1 1 0 11-2 0V9zm5-1a1 1 0 00-1 1v6a1 1 0 102 0V9a1 1 0 00-1-1z"></path>
  </symbol>
  <symbol xmlns="http://www.w3.org/2000/svg" viewBox="0 0 24 24" id="Search">
    <path fill-rule="evenodd" clip-rule="evenodd" d="M13.793 13.793a1 1 0 011.414 0l5.5 5.5a1 1 0 01-1.414 1.414l-5.5-5.5a1 1 0 010-1.414z"></path>
    <path fill-rule="evenodd" clip-rule="evenodd" d="M10 5a5 5 0 100 10 5 5 0 000-10zm-7 5a7 7 0 1114 0 7 7 0 01-14 0z"></path>
  </symbol>
  <symbol xmlns="http://www.w3.org/2000/svg" viewBox="0 0 24 24" id="Send">
    <path d="M4.8 2.4A1.6 1.6 0 003.2 4v4.8a1.6 1.6 0 001.6 1.6h.017L14.4 12l-9.583 1.602L4.8 13.6a1.6 1.6 0 00-1.6 1.6V20a1.6 1.6 0 002.394 1.387h.002l16.317-8.65.001-.003a.8.8 0 00-.001-1.472L5.596 2.612A1.6 1.6 0 004.8 2.4z"></path>
  </symbol>
  <symbol xmlns="http://www.w3.org/2000/svg" viewBox="0 0 24 24" id="User">
    <path fill-rule="evenodd" clip-rule="evenodd" d="M9 16a3 3 0 00-3 3 1 1 0 001 1h10a1 1 0 001-1 3 3 0 00-3-3H9zm-5 3a5 5 0 015-5h6a5 5 0 015 5 3 3 0 01-3 3H7a3 3 0 01-3-3zm8-15a3 3 0 100 6 3 3 0 000-6zM7 7a5 5 0 1110 0A5 5 0 017 7z"></path>
  </symbol>
  <symbol xmlns="http://www.w3.org/2000/svg" viewBox="0 0 28 28" id="Users">
    <path d="M14 5.6c-2.97 0-4.2 1.905-4.2 4.2 0 .773.37 1.55.37 1.55-.148.085-.395.358-.334.84.115.898.505 1.124.753 1.143.095.838.996 1.911 1.311 2.067v1.252c-.7 2.1-6.3 1.781-6.3 6.681h16.8c0-4.9-5.6-4.58-6.3-6.68V15.4c.316-.156 1.216-1.229 1.31-2.067.249-.019.639-.245.753-1.143.062-.483-.185-.755-.333-.84 0 0 .37-.702.37-1.55 0-1.7-.667-3.15-2.1-3.15 0 0-.498-1.05-2.1-1.05zm7 1.865c-.478 0-.884.086-1.258.21.205.633.325 1.34.325 2.125 0 .496-.078.952-.177 1.333.135.4.182.84.124 1.292-.132 1.028-.53 1.726-1.032 2.166a5.775 5.775 0 01-.56 1.006c.265.544.654 1.028.828 1.126v.011c1.901.892 5.017 2.39 5.017 6.6H28c0-4.628-4.667-3.964-5.25-5.947v-.665c.262-.148 1.014-1.161 1.092-1.953.206-.018.532-.23.627-1.079.051-.455-.154-.712-.277-.793 0 0 .308-.664.308-1.464 0-1.605-.556-2.975-1.75-2.975 0 0-.414-.993-1.75-.993zM7 7.467c-1.336 0-1.75.991-1.75.991-1.194 0-1.75 1.372-1.75 2.977 0 .801.308 1.462.308 1.462-.124.08-.328.338-.277.793.095.849.42 1.063.627 1.081.078.792.83 1.805 1.092 1.952v.664C4.667 19.369 0 18.706 0 23.333h3.733c0-4.209 3.116-5.706 5.017-6.599v-.012c.175-.098.563-.58.828-1.125a5.793 5.793 0 01-.56-1.008c-.501-.439-.901-1.137-1.032-2.164a2.902 2.902 0 01.128-1.309 5.23 5.23 0 01-.18-1.316c0-.772.109-1.481.307-2.13A3.911 3.911 0 007 7.468z"></path>
  </symbol>
  <symbol xmlns="http://www.w3.org/2000/svg" viewBox="0 0 28 28" id="Align-left">
    <path d="M4.667 3.733a.933.933 0 100 1.867h18.666a.934.934 0 100-1.867H4.667zm0 4.667a.933.933 0 100 1.867h11.2a.934.934 0 100-1.867h-11.2zm0 4.667a.933.933 0 100 1.866h18.666a.933.933 0 100-1.866H4.667zm0 4.666a.933.933 0 100 1.867h11.2a.932.932 0 100-1.867h-11.2zm0 4.667a.935.935 0 100 1.867h18.666a.935.935 0 00.669-1.598.932.932 0 00-.669-.269H4.667z"></path>
  </symbol>
  <symbol fill="none" xmlns="http://www.w3.org/2000/svg" viewBox="0 0 24 24" id="Arrow-down">
    <path d="M6.58 14L12 19.42 17.423 14M12 19.422v-14" stroke="#1B1D21" stroke-width="2" stroke-linecap="round" stroke-linejoin="round"></path>
  </symbol>
  <symbol fill="none" xmlns="http://www.w3.org/2000/svg" viewBox="0 0 24 24" id="Arrow-left">
    <path d="M10.422 17.843L5 12.422 10.422 7M5 12.422h14" stroke="#1B1D21" stroke-width="2" stroke-linecap="round" stroke-linejoin="round"></path>
  </symbol>
  <symbol fill="none" xmlns="http://www.w3.org/2000/svg" viewBox="0 0 24 24" id="Arrow-right">
    <path d="M13.578 17.843L19 12.422 13.578 7M19 12.422H5" stroke="#1B1D21" stroke-width="2" stroke-linecap="round" stroke-linejoin="round"></path>
  </symbol>
  <symbol fill="none" xmlns="http://www.w3.org/2000/svg" viewBox="0 0 24 24" id="Arrow-up">
    <path d="M17.422 10.844L12 5.422l-5.42 5.422M12 5.422v14" stroke="#1B1D21" stroke-width="2" stroke-linecap="round" stroke-linejoin="round"></path>
  </symbol>
  <symbol xmlns="http://www.w3.org/2000/svg" viewBox="0 0 24 24" id="Bell">
    <path d="M10 20h4a2 2 0 11-4 0z"></path>
    <path fill-rule="evenodd" clip-rule="evenodd" d="M12 2a1 1 0 00-1 1v1c0 .028.002.055.004.082A6.002 6.002 0 006 10v1.957c0 .431-.156.847-.44 1.172l-.644.74C2.83 16.261 4.531 20 7.707 20h8.588c3.175 0 4.876-3.738 2.789-6.132l-.645-.74a1.783 1.783 0 01-.439-1.17V10a6.002 6.002 0 00-5.003-5.918A1.02 1.02 0 0013.001 4V3a1 1 0 00-1-1zm-4 8a4 4 0 118 0v1.957c0 .914.331 1.797.932 2.486l.644.74c.96 1.1.178 2.817-1.282 2.817H7.707c-1.46 0-2.241-1.718-1.282-2.818l.644-.739c.6-.689.932-1.572.932-2.486V10z"></path>
  </symbol>
  <symbol xmlns="http://www.w3.org/2000/svg" viewBox="0 0 24 24" id="Checkbox-off">
    <path fill-rule="evenodd" clip-rule="evenodd" d="M10.357 21h3.286c1.084 0 1.958 0 2.666-.058.729-.06 1.369-.185 1.961-.487a4.999 4.999 0 002.185-2.185c.302-.592.428-1.232.487-1.961C21 15.6 21 14.727 21 13.643v-3.286c0-1.084 0-1.958-.058-2.666-.06-.728-.185-1.369-.487-1.961a5 5 0 00-2.185-2.185c-.592-.302-1.232-.428-1.961-.487C15.6 3 14.727 3 13.643 3h-3.286C9.273 3 8.4 3 7.691 3.058c-.728.06-1.369.185-1.96.487A5 5 0 003.544 5.73c-.302.592-.428 1.232-.487 1.961C3 8.4 3 9.273 3 10.357v3.286c0 1.084 0 1.958.058 2.666.06.729.185 1.369.487 1.96a5 5 0 002.185 2.186c.592.302 1.233.428 1.961.487C8.4 21 9.273 21 10.357 21zm-2.503-2.051c-.605-.05-.953-.142-1.216-.276a3 3 0 01-1.311-1.311c-.134-.263-.226-.611-.276-1.216C5.001 15.529 5 14.736 5 13.6v-3.2c0-1.137 0-1.929.051-2.546.05-.605.142-.953.276-1.216a3 3 0 011.311-1.311c.263-.134.611-.226 1.216-.276C8.471 5.001 9.264 5 10.4 5h3.2c1.137 0 1.929 0 2.546.051.605.05.953.142 1.216.276a3 3 0 011.311 1.311c.134.263.226.611.276 1.216.05.617.051 1.41.051 2.546v3.2c0 1.137 0 1.929-.051 2.546-.05.605-.142.953-.276 1.216a3 3 0 01-1.311 1.311c-.263.134-.611.226-1.216.276-.617.05-1.41.051-2.546.051h-3.2c-1.137 0-1.929 0-2.546-.051z"></path>
  </symbol>
  <symbol xmlns="http://www.w3.org/2000/svg" viewBox="0 0 24 24" id="Checkbox-on">
    <path fill-rule="evenodd" clip-rule="evenodd" d="M13.643 3h-3.286C9.273 3 8.4 3 7.691 3.058c-.728.06-1.369.185-1.96.487A5 5 0 003.544 5.73c-.302.592-.428 1.233-.487 1.961C3 8.4 3 9.273 3 10.357v3.286c0 1.084 0 1.958.058 2.666.06.729.185 1.369.487 1.961a5 5 0 002.185 2.185c.592.302 1.233.428 1.961.487C8.4 21 9.273 21 10.357 21h3.286c1.084 0 1.958 0 2.666-.058.729-.06 1.369-.185 1.961-.487a5 5 0 002.185-2.185c.302-.592.428-1.232.487-1.961C21 15.6 21 14.727 21 13.643v-3.286c0-1.084 0-1.958-.058-2.666-.06-.728-.185-1.369-.487-1.96a5 5 0 00-2.185-2.186c-.592-.302-1.232-.428-1.961-.487C15.6 3 14.727 3 13.643 3zm2.064 7.707a1 1 0 00-1.414-1.414L11 12.586l-1.293-1.293a1 1 0 00-1.414 1.414l2 2a1 1 0 001.414 0l4-4z"></path>
  </symbol>
  <symbol xmlns="http://www.w3.org/2000/svg" viewBox="0 0 24 24" id="Chevrone-down">
    <path d="M15.876 8.998l-3.88 3.88-3.88-3.88a.997.997 0 10-1.41 1.41l4.59 4.59a.996.996 0 001.41 0l4.59-4.59a.997.997 0 000-1.41c-.39-.38-1.03-.39-1.42 0z"></path>
  </symbol>
  <symbol xmlns="http://www.w3.org/2000/svg" viewBox="0 0 24 24" id="Chevrone-left">
    <path d="M14.998 8.127l-3.88 3.88 3.88 3.88a.998.998 0 11-1.41 1.41l-4.59-4.59a.997.997 0 010-1.41l4.59-4.59a.996.996 0 011.41 0c.38.39.39 1.03 0 1.42z"></path>
  </symbol>
  <symbol xmlns="http://www.w3.org/2000/svg" viewBox="0 0 24 24" id="Chevrone-right">
    <path d="M8.998 8.127l3.88 3.88-3.88 3.88a.997.997 0 101.41 1.41l4.59-4.59a.997.997 0 000-1.41l-4.59-4.59a.996.996 0 00-1.41 0c-.38.39-.39 1.03 0 1.42z"></path>
  </symbol>
  <symbol xmlns="http://www.w3.org/2000/svg" viewBox="0 0 24 24" id="Chevrone-up">
    <path d="M8.124 15.002l3.88-3.88 3.88 3.88a.997.997 0 001.41-1.41l-4.59-4.59a.996.996 0 00-1.41 0l-4.59 4.59a.996.996 0 000 1.41c.39.38 1.03.39 1.42 0z"></path>
  </symbol>
  <symbol xmlns="http://www.w3.org/2000/svg" viewBox="0 0 24 24" id="Clock">
    <path fill-rule="evenodd" clip-rule="evenodd" d="M12 20a8 8 0 100-16 8 8 0 000 16zm0 2c5.523 0 10-4.477 10-10S17.523 2 12 2 2 6.477 2 12s4.477 10 10 10z"></path>
    <path fill-rule="evenodd" clip-rule="evenodd" d="M12 6a1 1 0 011 1v4.586l2.207 2.207a1 1 0 01-1.414 1.414l-2.5-2.5A1 1 0 0111 12V7a1 1 0 011-1z"></path>
  </symbol>
</svg>