<svg width="28" height="28" viewBox="0 0 28 28" xmlns="http://www.w3.org/2000/svg">
    <path d="M4.6666 3.73334C4.54292 3.73159 4.42013 3.75444 4.30536 3.80056C4.19059 3.84668 4.08613 3.91515 3.99805 4.00199C3.90997 4.08883 3.84003 4.19231 3.79229 4.30642C3.74455 4.42053 3.71997 4.54298 3.71997 4.66667C3.71997 4.79036 3.74455 4.91282 3.79229 5.02693C3.84003 5.14103 3.90997 5.24451 3.99805 5.33136C4.08613 5.4182 4.19059 5.48667 4.30536 5.53279C4.42013 5.57891 4.54292 5.60175 4.6666 5.60001H23.3333C23.4569 5.60175 23.5797 5.57891 23.6945 5.53279C23.8093 5.48667 23.9137 5.4182 24.0018 5.33136C24.0899 5.24451 24.1598 5.14103 24.2076 5.02693C24.2553 4.91282 24.2799 4.79036 24.2799 4.66667C24.2799 4.54298 24.2553 4.42053 24.2076 4.30642C24.1598 4.19231 24.0899 4.08883 24.0018 4.00199C23.9137 3.91515 23.8093 3.84668 23.6945 3.80056C23.5797 3.75444 23.4569 3.73159 23.3333 3.73334H4.6666ZM4.6666 8.40001C4.54292 8.39826 4.42013 8.42111 4.30536 8.46723C4.19059 8.51334 4.08613 8.58182 3.99805 8.66866C3.90997 8.7555 3.84003 8.85898 3.79229 8.97309C3.74455 9.08719 3.71997 9.20965 3.71997 9.33334C3.71997 9.45703 3.74455 9.57949 3.79229 9.69359C3.84003 9.8077 3.90997 9.91118 3.99805 9.99802C4.08613 10.0849 4.19059 10.1533 4.30536 10.1995C4.42013 10.2456 4.54292 10.2684 4.6666 10.2667H15.8666C15.9903 10.2684 16.1131 10.2456 16.2278 10.1995C16.3426 10.1533 16.4471 10.0849 16.5351 9.99802C16.6232 9.91118 16.6932 9.8077 16.7409 9.69359C16.7886 9.57949 16.8132 9.45703 16.8132 9.33334C16.8132 9.20965 16.7886 9.08719 16.7409 8.97309C16.6932 8.85898 16.6232 8.7555 16.5351 8.66866C16.4471 8.58182 16.3426 8.51334 16.2278 8.46723C16.1131 8.42111 15.9903 8.39826 15.8666 8.40001H4.6666ZM4.6666 13.0667C4.54292 13.0649 4.42013 13.0878 4.30536 13.1339C4.19059 13.18 4.08613 13.2485 3.99805 13.3353C3.90997 13.4222 3.84003 13.5256 3.79229 13.6398C3.74455 13.7539 3.71997 13.8763 3.71997 14C3.71997 14.1237 3.74455 14.2462 3.79229 14.3603C3.84003 14.4744 3.90997 14.5778 3.99805 14.6647C4.08613 14.7515 4.19059 14.82 4.30536 14.8661C4.42013 14.9122 4.54292 14.9351 4.6666 14.9333H23.3333C23.4569 14.9351 23.5797 14.9122 23.6945 14.8661C23.8093 14.82 23.9137 14.7515 24.0018 14.6647C24.0899 14.5778 24.1598 14.4744 24.2076 14.3603C24.2553 14.2462 24.2799 14.1237 24.2799 14C24.2799 13.8763 24.2553 13.7539 24.2076 13.6398C24.1598 13.5256 24.0899 13.4222 24.0018 13.3353C23.9137 13.2485 23.8093 13.18 23.6945 13.1339C23.5797 13.0878 23.4569 13.0649 23.3333 13.0667H4.6666ZM4.6666 17.7333C4.54292 17.7316 4.42013 17.7544 4.30536 17.8006C4.19059 17.8467 4.08613 17.9151 3.99805 18.002C3.90997 18.0888 3.84003 18.1923 3.79229 18.3064C3.74455 18.4205 3.71997 18.543 3.71997 18.6667C3.71997 18.7904 3.74455 18.9128 3.79229 19.0269C3.84003 19.141 3.90997 19.2445 3.99805 19.3314C4.08613 19.4182 4.19059 19.4867 4.30536 19.5328C4.42013 19.5789 4.54292 19.6018 4.6666 19.6H15.8666C15.9903 19.6018 16.1131 19.5789 16.2278 19.5328C16.3426 19.4867 16.4471 19.4182 16.5351 19.3314C16.6232 19.2445 16.6932 19.141 16.7409 19.0269C16.7886 18.9128 16.8132 18.7904 16.8132 18.6667C16.8132 18.543 16.7886 18.4205 16.7409 18.3064C16.6932 18.1923 16.6232 18.0888 16.5351 18.002C16.4471 17.9151 16.3426 17.8467 16.2278 17.8006C16.1131 17.7544 15.9903 17.7316 15.8666 17.7333H4.6666ZM4.6666 22.4C4.54292 22.3983 4.42013 22.4211 4.30536 22.4672C4.19059 22.5133 4.08613 22.5818 3.99805 22.6687C3.90997 22.7555 3.84003 22.859 3.79229 22.9731C3.74455 23.0872 3.71997 23.2096 3.71997 23.3333C3.71997 23.457 3.74455 23.5795 3.79229 23.6936C3.84003 23.8077 3.90997 23.9112 3.99805 23.998C4.08613 24.0849 4.19059 24.1533 4.30536 24.1995C4.42013 24.2456 4.54292 24.2684 4.6666 24.2667H23.3333C23.4569 24.2684 23.5797 24.2456 23.6945 24.1995C23.8093 24.1533 23.9137 24.0849 24.0018 23.998C24.0899 23.9112 24.1598 23.8077 24.2076 23.6936C24.2553 23.5795 24.2799 23.457 24.2799 23.3333C24.2799 23.2096 24.2553 23.0872 24.2076 22.9731C24.1598 22.859 24.0899 22.7555 24.0018 22.6687C23.9137 22.5818 23.8093 22.5133 23.6945 22.4672C23.5797 22.4211 23.4569 22.3983 23.3333 22.4H4.6666Z" />
</svg>
