<svg width="24" height="24" viewBox="0 0 24 24" xmlns="http://www.w3.org/2000/svg">
    <path d="M10 20H14C14 21.1046 13.1046 22 12 22C10.8954 22 10 21.1046 10 20Z" />
    <path fill-rule="evenodd" clip-rule="evenodd" d="M12.0005 2C11.4482 2 11.0005 2.44772 11.0005 3V4C11.0005 4.02775 11.0016 4.05523 11.0038 4.08241C8.1645 4.55712 6.00053 7.02585 6.00053 10V11.9574C6.00053 12.3881 5.84462 12.8042 5.56161 13.1289L4.91717 13.8682C2.83035 16.2623 4.53068 20 7.70658 20H16.2945C19.4704 20 21.1707 16.2623 19.0839 13.8682L18.4395 13.1289C18.1565 12.8042 18.0005 12.3881 18.0005 11.9574V10C18.0005 7.02582 15.8365 4.55707 12.9972 4.08239C12.9994 4.05522 13.0005 4.02774 13.0005 4V3C13.0005 2.44772 12.5528 2 12.0005 2ZM8.00053 10C8.00053 7.79086 9.79139 6 12.0005 6C14.2097 6 16.0005 7.79086 16.0005 10V11.9574C16.0005 12.8712 16.3313 13.7542 16.9318 14.443L17.5763 15.1824C18.5352 16.2825 17.7539 18 16.2945 18H7.70658C6.24721 18 5.46589 16.2825 6.42481 15.1824L7.06925 14.443C7.66973 13.7542 8.00053 12.8712 8.00053 11.9574V10Z" />
</svg>
