<svg width="24" height="24" viewBox="0 0 24 24" xmlns="http://www.w3.org/2000/svg">
    <path fill-rule="evenodd" clip-rule="evenodd" d="M13.6428 3H10.3572H10.3571C9.27335 2.99999 8.39924 2.99998 7.69138 3.05782C6.96253 3.11737 6.32234 3.24318 5.73005 3.54497C4.78924 4.02433 4.02433 4.78924 3.54497 5.73005C3.24318 6.32234 3.11737 6.96253 3.05782 7.69138C2.99998 8.39923 2.99999 9.27335 3 10.3571V10.3572L3 13.6428V13.6429C2.99999 14.7267 2.99998 15.6007 3.05782 16.3086C3.11737 17.0375 3.24318 17.6777 3.54497 18.27C4.02433 19.2108 4.78924 19.9757 5.73005 20.455C6.32234 20.7568 6.96253 20.8826 7.69138 20.9422C8.39925 21 9.27339 21 10.3572 21H13.6428C14.7266 21 15.6008 21 16.3086 20.9422C17.0375 20.8826 17.6777 20.7568 18.27 20.455C19.2108 19.9757 19.9757 19.2108 20.455 18.27C20.7568 17.6777 20.8826 17.0375 20.9422 16.3086C21 15.6008 21 14.7266 21 13.6428V10.3572C21 9.27339 21 8.39925 20.9422 7.69138C20.8826 6.96253 20.7568 6.32234 20.455 5.73005C19.9757 4.78924 19.2108 4.02433 18.27 3.54497C17.6777 3.24318 17.0375 3.11737 16.3086 3.05782C15.6007 2.99998 14.7267 2.99999 13.6429 3H13.6428ZM15.7071 10.7071C16.0976 10.3166 16.0976 9.68342 15.7071 9.29289C15.3166 8.90237 14.6834 8.90237 14.2929 9.29289L11 12.5858L9.70711 11.2929C9.31658 10.9024 8.68342 10.9024 8.29289 11.2929C7.90237 11.6834 7.90237 12.3166 8.29289 12.7071L10.2929 14.7071C10.6834 15.0976 11.3166 15.0976 11.7071 14.7071L15.7071 10.7071Z" />
</svg>
