<svg width="24" height="24" viewBox="0 0 24 24" xmlns="http://www.w3.org/2000/svg">
    <path fill-rule="evenodd" clip-rule="evenodd" d="M10.3572 21H13.6428C14.7266 21 15.6007 21 16.3086 20.9422C17.0375 20.8826 17.6777 20.7568 18.27 20.455C19.2108 19.9757 19.9757 19.2108 20.455 18.2699C20.7568 17.6777 20.8826 17.0375 20.9422 16.3086C21 15.6007 21 14.7266 21 13.6428V10.3572C21 9.2734 21 8.3992 20.9422 7.6914C20.8826 6.9625 20.7568 6.3223 20.455 5.73C19.9757 4.7892 19.2108 4.0243 18.27 3.545C17.6777 3.2432 17.0375 3.1174 16.3086 3.0578C15.6008 3 14.7266 3 13.6428 3H10.3572C9.27339 3 8.39925 3 7.69138 3.0578C6.96253 3.1174 6.32234 3.2432 5.73005 3.545C4.78924 4.0243 4.02433 4.7892 3.54497 5.73C3.24318 6.3223 3.11737 6.9625 3.05782 7.6914C2.99998 8.3993 2.99999 9.2734 3 10.3572V13.6428C2.99999 14.7266 2.99998 15.6007 3.05782 16.3086C3.11737 17.0375 3.24318 17.6777 3.54497 18.2699C4.02433 19.2108 4.78924 19.9757 5.73005 20.455C6.32234 20.7568 6.96253 20.8826 7.69138 20.9422C8.39926 21 9.27341 21 10.3572 21ZM7.85424 18.9488C7.24907 18.8994 6.90138 18.8072 6.63803 18.673C6.07354 18.3854 5.6146 17.9265 5.32698 17.362C5.19279 17.0986 5.10062 16.7509 5.05118 16.1458C5.00078 15.5289 5 14.7366 5 13.6V10.4C5 9.2634 5.00078 8.4711 5.05118 7.8542C5.10062 7.2491 5.19279 6.9014 5.32698 6.638C5.6146 6.0735 6.07354 5.6146 6.63803 5.327C6.90138 5.1928 7.24907 5.1006 7.85424 5.0512C8.47108 5.0008 9.26339 5 10.4 5H13.6C14.7366 5 15.5289 5.0008 16.1458 5.0512C16.7509 5.1006 17.0986 5.1928 17.362 5.327C17.9265 5.6146 18.3854 6.0735 18.673 6.638C18.8072 6.9014 18.8994 7.2491 18.9488 7.8542C18.9992 8.4711 19 9.2634 19 10.4V13.6C19 14.7366 18.9992 15.5289 18.9488 16.1458C18.8994 16.7509 18.8072 17.0986 18.673 17.362C18.3854 17.9265 17.9265 18.3854 17.362 18.673C17.0986 18.8072 16.7509 18.8994 16.1458 18.9488C15.5289 18.9992 14.7366 19 13.6 19H10.4C9.26339 19 8.47108 18.9992 7.85424 18.9488Z" />
</svg>
