<svg width="24" height="24" viewBox="0 0 24 24" xmlns="http://www.w3.org/2000/svg">
    <path d="M15.8764 8.99766L11.9964 12.8777L8.11642 8.99766C8.02384 8.90507 7.91393 8.83163 7.79297 8.78153C7.672 8.73142 7.54235 8.70564 7.41142 8.70564C7.28049 8.70564 7.15084 8.73142 7.02988 8.78153C6.90892 8.83163 6.79901 8.90507 6.70642 8.99766C6.61384 9.09024 6.5404 9.20015 6.4903 9.32111C6.44019 9.44208 6.4144 9.57173 6.4144 9.70266C6.4144 9.83359 6.44019 9.96323 6.4903 10.0842C6.5404 10.2052 6.61384 10.3151 6.70642 10.4077L11.2964 14.9977C11.3889 15.0904 11.4988 15.1639 11.6198 15.2141C11.7408 15.2643 11.8705 15.2901 12.0014 15.2901C12.1324 15.2901 12.2621 15.2643 12.383 15.2141C12.504 15.1639 12.6139 15.0904 12.7064 14.9977L17.2964 10.4077C17.3891 10.3151 17.4627 10.2053 17.5129 10.0843C17.563 9.96331 17.5889 9.83362 17.5889 9.70266C17.5889 9.57169 17.563 9.442 17.5129 9.32103C17.4627 9.20006 17.3891 9.09017 17.2964 8.99766C16.9064 8.61766 16.2664 8.60766 15.8764 8.99766Z" />
</svg>
