<svg width="24" height="24" viewBox="0 0 24 24" xmlns="http://www.w3.org/2000/svg">
    <path d="M14.9975 8.12736L11.1175 12.0074L14.9975 15.8874C15.0901 15.9799 15.1635 16.0899 15.2137 16.2108C15.2638 16.3318 15.2895 16.4614 15.2895 16.5924C15.2895 16.7233 15.2638 16.8529 15.2137 16.9739C15.1635 17.0949 15.0901 17.2048 14.9975 17.2974C14.9049 17.3899 14.795 17.4634 14.6741 17.5135C14.5531 17.5636 14.4235 17.5894 14.2925 17.5894C14.1616 17.5894 14.0319 17.5636 13.911 17.5135C13.79 17.4634 13.6801 17.3899 13.5875 17.2974L8.99752 12.7074C8.90482 12.6148 8.83127 12.505 8.78109 12.384C8.73091 12.263 8.70508 12.1333 8.70508 12.0024C8.70508 11.8714 8.73091 11.7417 8.78109 11.6207C8.83127 11.4998 8.90482 11.3899 8.99752 11.2974L13.5875 6.70736C13.68 6.61466 13.7899 6.54111 13.9109 6.49093C14.0319 6.44075 14.1616 6.41492 14.2925 6.41492C14.4235 6.41492 14.5532 6.44075 14.6741 6.49093C14.7951 6.54111 14.905 6.61466 14.9975 6.70736C15.3775 7.09736 15.3875 7.73736 14.9975 8.12736Z" />
</svg>
