<svg width="24" height="24" viewBox="0 0 24 24" xmlns="http://www.w3.org/2000/svg">
    <path d="M8.12358 15.0024L12.0036 11.1224L15.8836 15.0024C15.9762 15.095 16.0861 15.1684 16.207 15.2185C16.328 15.2686 16.4576 15.2944 16.5886 15.2944C16.7195 15.2944 16.8492 15.2686 16.9701 15.2185C17.0911 15.1684 17.201 15.095 17.2936 15.0024C17.3862 14.9098 17.4596 14.7999 17.5097 14.6789C17.5598 14.558 17.5856 14.4283 17.5856 14.2974C17.5856 14.1665 17.5598 14.0368 17.5097 13.9159C17.4596 13.7949 17.3862 13.685 17.2936 13.5924L12.7036 9.00241C12.6111 8.9097 12.5012 8.83615 12.3802 8.78597C12.2592 8.73579 12.1295 8.70996 11.9986 8.70996C11.8676 8.70996 11.7379 8.73579 11.617 8.78597C11.496 8.83615 11.3861 8.9097 11.2936 9.00241L6.70358 13.5924C6.61087 13.6849 6.53733 13.7948 6.48714 13.9158C6.43696 14.0368 6.41113 14.1664 6.41113 14.2974C6.41113 14.4284 6.43696 14.5581 6.48714 14.679C6.53733 14.8 6.61087 14.9099 6.70358 15.0024C7.09358 15.3824 7.73358 15.3924 8.12358 15.0024Z" />
</svg>
