<svg width="24" height="24" viewBox="0 0 24 24" xmlns="http://www.w3.org/2000/svg">
    <path d="M8.99759 8.12736L12.8776 12.0074L8.99759 15.8874C8.90501 15.9799 8.83157 16.0899 8.78147 16.2108C8.73136 16.3318 8.70557 16.4614 8.70557 16.5924C8.70557 16.7233 8.73136 16.8529 8.78147 16.9739C8.83157 17.0949 8.90501 17.2048 8.99759 17.2974C9.09018 17.3899 9.20009 17.4634 9.32105 17.5135C9.44202 17.5636 9.57166 17.5894 9.70259 17.5894C9.83352 17.5894 9.96317 17.5636 10.0841 17.5135C10.2051 17.4634 10.315 17.3899 10.4076 17.2974L14.9976 12.7074C15.0903 12.6148 15.1638 12.505 15.214 12.384C15.2642 12.263 15.29 12.1333 15.29 12.0024C15.29 11.8714 15.2642 11.7417 15.214 11.6207C15.1638 11.4998 15.0903 11.3899 14.9976 11.2974L10.4076 6.70736C10.3151 6.61466 10.2052 6.54111 10.0842 6.49093C9.96325 6.44075 9.83356 6.41492 9.70259 6.41492C9.57163 6.41492 9.44194 6.44075 9.32097 6.49093C9.2 6.54111 9.09011 6.61466 8.99759 6.70736C8.61759 7.09736 8.60759 7.73736 8.99759 8.12736Z" />
</svg>
