<svg width="24" height="24" viewBox="0 0 24 24" xmlns="http://www.w3.org/2000/svg">
    <path d="M16.9497 16.9497C16.5592 17.3402 15.9261 17.3402 15.5355 16.9497L12 13.4142L8.46447 16.9497C8.07394 17.3402 7.44078 17.3402 7.05025 16.9497C6.65973 16.5592 6.65973 15.926 7.05025 15.5355L10.5858 12L7.05025 8.46442C6.65973 8.0739 6.65973 7.44074 7.05025 7.05021C7.44078 6.65969 8.07394 6.65969 8.46447 7.05021L12 10.5857L15.5355 7.05021C15.9261 6.65969 16.5592 6.65969 16.9497 7.05021C17.3403 7.44074 17.3403 8.0739 16.9497 8.46442L13.4142 12L16.9497 15.5355C17.3403 15.926 17.3403 16.5592 16.9497 16.9497Z" />
</svg>
