<svg width="24" height="24" viewBox="0 0 24 24" xmlns="http://www.w3.org/2000/svg">
    <path fill-rule="evenodd" clip-rule="evenodd" d="M11 3C11 2.44772 11.4477 2 12 2C12.5523 2 13 2.44772 13 3V4H18C20.2091 4 22 5.79086 22 8V16C22 18.2091 20.2091 20 18 20H17.6181L17.8945 20.5528C18.1414 21.0467 17.9412 21.6474 17.4472 21.8944C16.9533 22.1414 16.3526 21.9412 16.1056 21.4472L15.382 20H8.618L7.8944 21.4472C7.64741 21.9412 7.04674 22.1414 6.55276 21.8944C6.05878 21.6474 5.85856 21.0467 6.10555 20.5528L6.38193 20H6C3.79086 20 2 18.2091 2 16V8C2 5.79086 3.79086 4 6 4H11V3ZM8.02281 18C8.00808 17.9997 7.99337 17.9997 7.97868 18H6C4.89543 18 4 17.1046 4 16V8C4 6.89543 4.89543 6 6 6H18C19.1046 6 20 6.89543 20 8V16C20 17.1046 19.1046 18 18 18H16.0213C16.0066 17.9997 15.9919 17.9997 15.9772 18H8.02281Z" />
    <path fill-rule="evenodd" clip-rule="evenodd" d="M17.6247 8.21917C18.056 8.56418 18.1259 9.19347 17.7809 9.62473L13.7809 14.6247C13.4568 15.0298 12.8769 15.1198 12.4453 14.8321L10.1274 13.2868L7.70711 15.7071C7.31658 16.0977 6.68342 16.0977 6.29289 15.7071C5.90237 15.3166 5.90237 14.6835 6.29289 14.2929L9.29289 11.2929C9.62996 10.9559 10.1581 10.9036 10.5547 11.168L12.7919 12.6594L16.2191 8.37534C16.5641 7.94408 17.1934 7.87416 17.6247 8.21917Z" />
</svg>
