<svg width="24" height="24" viewBox="0 0 24 24" xmlns="http://www.w3.org/2000/svg">
    <path d="M17.2189 4C16.8777 4 16.5365 4.13029 16.2761 4.39063L15.3334 5.33335L18.6668 8.66673L19.6095 7.72401C20.1302 7.20334 20.1302 6.35924 19.6095 5.83857L18.1616 4.39063C17.9012 4.13029 17.56 4 17.2189 4ZM14.0001 6.6667L6.00002 14.6668L7.00003 15.0002L7.33336 16.6668L9.00004 17.0002L9.33338 18.0002L17.3334 10.0001L14.0001 6.6667ZM4.76824 17.4351L4.02474 19.5393C4.0082 19.5798 3.9998 19.6231 4 19.6669C4 19.7553 4.03512 19.8401 4.09764 19.9026C4.16015 19.9651 4.24493 20.0002 4.33334 20.0002C4.37473 20.0004 4.41579 19.9929 4.45443 19.9781L6.56513 19.232L4.76824 17.4351Z" />
</svg>
