<svg width="24" height="24" viewBox="0 0 24 24" xmlns="http://www.w3.org/2000/svg">
    <path fill-rule="evenodd" clip-rule="evenodd" d="M14.1667 13.0711L14.7909 12.5708C15.9373 11.6517 16.6667 10.2449 16.6667 8.66667C16.6667 5.90524 14.4281 3.66667 11.6667 3.66667C8.90524 3.66667 6.66667 5.90524 6.66667 8.66667C6.66667 10.2449 7.39597 11.6517 8.54245 12.5708L9.16667 13.0711V15.3333C9.16667 15.7936 9.53977 16.1667 10 16.1667H10.8333V11.5118L9.41074 10.0893C9.08531 9.76382 9.08531 9.23618 9.41074 8.91074C9.73618 8.58531 10.2638 8.58531 10.5893 8.91074L11.6667 9.98816L12.7441 8.91074C13.0695 8.58531 13.5972 8.58531 13.9226 8.91074C14.248 9.23618 14.248 9.76382 13.9226 10.0893L12.5 11.5118V16.1667H13.3333C13.7936 16.1667 14.1667 15.7936 14.1667 15.3333V13.0711ZM15.8333 13.8712V15.3333C15.8333 16.0738 15.5115 16.739 15 17.1968V19.5C15 20.8808 13.8807 22 12.5 22H10.8333C9.45262 22 8.33333 20.8808 8.33333 19.5V17.1968C7.82188 16.739 7.5 16.0738 7.5 15.3333V13.8712C5.97589 12.6494 5 10.772 5 8.66667C5 4.98477 7.98477 2 11.6667 2C15.3486 2 18.3333 4.98477 18.3333 8.66667C18.3333 10.772 17.3574 12.6494 15.8333 13.8712ZM10 19.5V17.8333H13.3333V19.5C13.3333 19.9603 12.9602 20.3333 12.5 20.3333H10.8333C10.3731 20.3333 10 19.9603 10 19.5Z" />
</svg>
