<svg width="28" height="28" viewBox="0 0 28 28" xmlns="http://www.w3.org/2000/svg">
    <path d="M5.14793 2.3479C4.9004 2.3479 4.663 2.44623 4.48797 2.62127C4.31293 2.7963 4.2146 3.0337 4.2146 3.28123C4.2146 3.52877 4.31293 3.76617 4.48797 3.9412C4.663 4.11623 4.9004 4.21457 5.14793 4.21457C5.39547 4.21457 5.63286 4.11623 5.8079 3.9412C5.98293 3.76617 6.08127 3.52877 6.08127 3.28123C6.08127 3.0337 5.98293 2.7963 5.8079 2.62127C5.63286 2.44623 5.39547 2.3479 5.14793 2.3479ZM22.8521 2.3479C22.6046 2.3479 22.3672 2.44623 22.1921 2.62127C22.0171 2.7963 21.9188 3.0337 21.9188 3.28123C21.9188 3.52877 22.0171 3.76617 22.1921 3.9412C22.3672 4.11623 22.6046 4.21457 22.8521 4.21457C23.0996 4.21457 23.337 4.11623 23.5121 3.9412C23.6871 3.76617 23.7854 3.52877 23.7854 3.28123C23.7854 3.0337 23.6871 2.7963 23.5121 2.62127C23.337 2.44623 23.0996 2.3479 22.8521 2.3479ZM14 2.79998C9.37207 2.79998 5.60002 6.57204 5.60002 11.2C5.60002 14.3111 7.16708 16.6379 8.60965 18.4096C9.33094 19.2955 10.0275 20.0601 10.5073 20.7083C10.9871 21.3566 11.2 21.8577 11.2 22.1557V23.3333V24.2667C11.2 25.298 12.0353 26.1333 13.0667 26.1333C13.0667 26.3809 13.165 26.6182 13.34 26.7933C13.5151 26.9683 13.7525 27.0667 14 27.0667C14.2476 27.0667 14.4849 26.9683 14.66 26.7933C14.835 26.6182 14.9333 26.3809 14.9333 26.1333C15.9647 26.1333 16.8 25.298 16.8 24.2667V22.4V22.1922C16.814 21.8379 17.0548 21.3078 17.5456 20.6463C18.0363 19.9848 18.7354 19.2178 19.4542 18.3349C20.8918 16.569 22.4354 14.2664 22.4 11.189C22.3467 6.5742 18.628 2.79998 14 2.79998ZM14 4.66665C17.619 4.66665 20.4914 7.57883 20.5333 11.2109C20.5615 13.6589 19.3587 15.4948 18.0068 17.1555C17.3308 17.9858 16.6244 18.7538 16.0453 19.5344C15.4663 20.3149 14.9721 21.1337 14.9333 22.1193C14.9331 22.1314 14.9331 22.1436 14.9333 22.1557V22.4H13.0667V22.1557C13.0667 21.176 12.5796 20.3686 12.0094 19.5982C11.4392 18.8277 10.7358 18.0638 10.057 17.2302C8.69962 15.563 7.46668 13.6889 7.46668 11.2C7.46668 7.581 10.381 4.66665 14 4.66665ZM1.86668 10.2667C1.61915 10.2667 1.38175 10.365 1.20672 10.54C1.03168 10.7151 0.93335 10.9524 0.93335 11.2C0.93335 11.4475 1.03168 11.6849 1.20672 11.86C1.38175 12.035 1.61915 12.1333 1.86668 12.1333C2.11422 12.1333 2.35162 12.035 2.52665 11.86C2.70168 11.6849 2.80002 11.4475 2.80002 11.2C2.80002 10.9524 2.70168 10.7151 2.52665 10.54C2.35162 10.365 2.11422 10.2667 1.86668 10.2667ZM26.1333 10.2667C25.8858 10.2667 25.6484 10.365 25.4734 10.54C25.2983 10.7151 25.2 10.9524 25.2 11.2C25.2 11.4475 25.2983 11.6849 25.4734 11.86C25.6484 12.035 25.8858 12.1333 26.1333 12.1333C26.3809 12.1333 26.6183 12.035 26.7933 11.86C26.9683 11.6849 27.0667 11.4475 27.0667 11.2C27.0667 10.9524 26.9683 10.7151 26.7933 10.54C26.6183 10.365 26.3809 10.2667 26.1333 10.2667ZM5.14793 18.1854C4.9004 18.1854 4.663 18.2837 4.48797 18.4588C4.31293 18.6338 4.2146 18.8712 4.2146 19.1187C4.2146 19.3663 4.31293 19.6037 4.48797 19.7787C4.663 19.9537 4.9004 20.0521 5.14793 20.0521C5.39547 20.0521 5.63286 19.9537 5.8079 19.7787C5.98293 19.6037 6.08127 19.3663 6.08127 19.1187C6.08127 18.8712 5.98293 18.6338 5.8079 18.4588C5.63286 18.2837 5.39547 18.1854 5.14793 18.1854ZM22.8521 18.1854C22.6046 18.1854 22.3672 18.2837 22.1921 18.4588C22.0171 18.6338 21.9188 18.8712 21.9188 19.1187C21.9188 19.3663 22.0171 19.6037 22.1921 19.7787C22.3672 19.9537 22.6046 20.0521 22.8521 20.0521C23.0996 20.0521 23.337 19.9537 23.5121 19.7787C23.6871 19.6037 23.7854 19.3663 23.7854 19.1187C23.7854 18.8712 23.6871 18.6338 23.5121 18.4588C23.337 18.2837 23.0996 18.1854 22.8521 18.1854Z" />
</svg>
