<svg width="24" height="24" viewBox="0 0 24 24" xmlns="http://www.w3.org/2000/svg">
    <path fill-rule="evenodd" clip-rule="evenodd" d="M15.1615 12H16.8385C17.3657 12 17.8205 12 18.195 12.0306C18.5904 12.0629 18.9836 12.1342 19.362 12.327C19.9265 12.6146 20.3854 13.0735 20.673 13.638C20.8658 14.0164 20.9371 14.4096 20.9694 14.805C21 15.1795 21 15.6343 21 16.1614V16.8386C21 17.3657 21 17.8205 20.9694 18.195C20.9371 18.5904 20.8658 18.9836 20.673 19.362C20.3854 19.9265 19.9265 20.3854 19.362 20.673C18.9836 20.8658 18.5904 20.9371 18.195 20.9694C17.8205 21 17.3657 21 16.8385 21H15.1615C14.6343 21 14.1796 21 13.805 20.9694C13.4096 20.9371 13.0164 20.8658 12.638 20.673C12.0735 20.3854 11.6146 19.9265 11.327 19.362C11.1342 18.9836 11.0629 18.5904 11.0306 18.195C11 17.8205 11 17.3657 11 16.8385V16.1615C11 15.6343 11 15.1795 11.0306 14.805C11.0629 14.4096 11.1342 14.0164 11.327 13.638C11.6146 13.0735 12.0735 12.6146 12.638 12.327C13.0164 12.1342 13.4096 12.0629 13.805 12.0306C14.1795 12 14.6343 12 15.1615 12ZM13.9678 14.0239C13.6962 14.0461 13.5955 14.0838 13.546 14.109C13.3578 14.2049 13.2049 14.3578 13.109 14.546C13.0838 14.5955 13.0461 14.6962 13.0239 14.9678C13.0008 15.2512 13 15.6234 13 16.2V16.8C13 17.3766 13.0008 17.7488 13.0239 18.0322C13.0461 18.3038 13.0838 18.4045 13.109 18.454C13.2049 18.6422 13.3578 18.7951 13.546 18.891C13.5955 18.9162 13.6962 18.9539 13.9678 18.9761C14.2512 18.9992 14.6234 19 15.2 19H16.8C17.3766 19 17.7488 18.9992 18.0322 18.9761C18.3038 18.9539 18.4045 18.9162 18.454 18.891C18.6422 18.7951 18.7951 18.6422 18.891 18.454C18.9162 18.4045 18.9539 18.3038 18.9761 18.0322C18.9992 17.7488 19 17.3766 19 16.8V16.2C19 15.6234 18.9992 15.2512 18.9761 14.9678C18.9539 14.6962 18.9162 14.5955 18.891 14.546C18.7951 14.3578 18.6422 14.2049 18.454 14.109C18.4045 14.0838 18.3038 14.0461 18.0322 14.0239C17.7488 14.0008 17.3766 14 16.8 14H15.2C14.6234 14 14.2512 14.0008 13.9678 14.0239Z" />
    <path fill-rule="evenodd" clip-rule="evenodd" d="M6.4162 3.00004C6.03551 2.99974 5.70767 2.99948 5.41481 3.05773C4.22474 3.29445 3.29445 4.22474 3.05773 5.41482C2.99948 5.70767 2.99974 6.0355 3.00004 6.4162L3.00009 6.50009L3.00004 6.58397C2.99974 6.96467 2.99948 7.2925 3.05773 7.58536C3.29445 8.77543 4.22474 9.70572 5.41481 9.94244C5.70767 10.0007 6.0355 10.0004 6.4162 10.0001H17.584C17.9647 10.0004 18.2925 10.0007 18.5854 9.94244C19.7754 9.70572 20.7057 8.77543 20.9425 7.58536C21.0007 7.29252 21.0004 6.9647 21.0001 6.58402V6.50009V6.41619C21.0004 6.03551 21.0007 5.70766 20.9425 5.41482C20.7057 4.22474 19.7754 3.29445 18.5854 3.05773C18.2925 2.99948 17.9647 2.99974 17.584 3.00004H6.4162ZM5.805 5.0193C5.87724 5.00493 5.9875 5.00009 6.50009 5.00009H17.5001C18.0127 5.00009 18.1229 5.00493 18.1952 5.0193C18.5919 5.09821 18.902 5.40831 18.9809 5.805C18.9953 5.87725 19.0001 5.9875 19.0001 6.50009C19.0001 7.01267 18.9953 7.12293 18.9809 7.19518C18.902 7.59187 18.5919 7.90197 18.1952 7.98087C18.1229 7.99524 18.0127 8.00009 17.5001 8.00009H6.50009C5.9875 8.00009 5.87724 7.99524 5.805 7.98087C5.4083 7.90197 5.09821 7.59187 5.0193 7.19518C5.00493 7.12293 5.00009 7.01267 5.00009 6.50009C5.00009 5.9875 5.00493 5.87725 5.0193 5.805C5.09821 5.40831 5.4083 5.09821 5.805 5.0193Z" />
    <path fill-rule="evenodd" clip-rule="evenodd" d="M6 12.0001C4.34315 12.0001 3 13.3433 3 15.0001V18.0001C3 19.657 4.34315 21.0001 6 21.0001C7.65685 21.0001 9 19.657 9 18.0001V15.0001C9 13.3433 7.65685 12.0001 6 12.0001ZM5 15.0001C5 14.4478 5.44772 14.0001 6 14.0001C6.55228 14.0001 7 14.4478 7 15.0001V18.0001C7 18.5524 6.55228 19.0001 6 19.0001C5.44772 19.0001 5 18.5524 5 18.0001V15.0001Z" />
</svg>
