<svg width="24" height="24" viewBox="0 0 24 24" xmlns="http://www.w3.org/2000/svg">
    <path d="M3.99961 9.59998C2.67401 9.59998 1.59961 10.6744 1.59961 12C1.59961 13.3256 2.67401 14.4 3.99961 14.4C5.32521 14.4 6.39961 13.3256 6.39961 12C6.39961 10.6744 5.32521 9.59998 3.99961 9.59998ZM11.9996 9.59998C10.674 9.59998 9.59961 10.6744 9.59961 12C9.59961 13.3256 10.674 14.4 11.9996 14.4C13.3252 14.4 14.3996 13.3256 14.3996 12C14.3996 10.6744 13.3252 9.59998 11.9996 9.59998ZM19.9996 9.59998C18.674 9.59998 17.5996 10.6744 17.5996 12C17.5996 13.3256 18.674 14.4 19.9996 14.4C21.3252 14.4 22.3996 13.3256 22.3996 12C22.3996 10.6744 21.3252 9.59998 19.9996 9.59998Z" />
</svg>
