<svg width="24" height="24" viewBox="0 0 24 24" xmlns="http://www.w3.org/2000/svg">
    <path d="M4.8002 2.40002C4.37585 2.40002 3.96888 2.5686 3.66882 2.86865C3.36877 3.16871 3.2002 3.57568 3.2002 4.00002V8.80002C3.20072 9.13141 3.30412 9.45446 3.49612 9.72455C3.68813 9.99464 3.95926 10.1985 4.27207 10.3078C4.44167 10.368 4.62022 10.3992 4.8002 10.4C4.80592 10.4001 4.81165 10.4001 4.81738 10.4L14.4002 12L4.81738 13.6016C4.81166 13.601 4.80593 13.6005 4.8002 13.6C4.6197 13.6007 4.44061 13.6318 4.27051 13.6922C3.95799 13.8019 3.68719 14.0058 3.49549 14.2758C3.30378 14.5459 3.2006 14.8688 3.2002 15.2V20C3.2002 20.4244 3.36877 20.8313 3.66882 21.1314C3.96888 21.4315 4.37585 21.6 4.8002 21.6C5.07877 21.5995 5.35237 21.5262 5.59395 21.3875H5.59551L21.9127 12.7375L21.9143 12.7344C22.0582 12.673 22.181 12.5706 22.2674 12.4401C22.3537 12.3096 22.3999 12.1565 22.4002 12C22.4004 11.8428 22.3543 11.689 22.2676 11.5578C22.1809 11.4267 22.0574 11.3239 21.9127 11.2625L5.59551 2.61252C5.35348 2.47354 5.0793 2.40028 4.8002 2.40002Z" />
</svg>
