<svg width="28" height="28" viewBox="0 0 28 28" xmlns="http://www.w3.org/2000/svg">
    <path d="M14 5.60001C11.0301 5.60001 9.8 7.50494 9.8 9.80001C9.8 10.5728 10.1701 11.3495 10.1701 11.3495C10.0217 11.4354 9.77486 11.7083 9.83646 12.1898C9.95126 13.0877 10.3411 13.3142 10.5893 13.3328C10.6836 14.171 11.5855 15.2441 11.9 15.4V16.6523C11.2 18.7523 5.6 18.4333 5.6 23.3333H22.4C22.4 18.4333 16.8 18.7523 16.1 16.6523V15.4C16.4155 15.2441 17.3164 14.171 17.4107 13.3328C17.6589 13.3142 18.0487 13.0877 18.1635 12.1898C18.2251 11.7073 17.9783 11.4354 17.8299 11.3495C17.8299 11.3495 18.2 10.6484 18.2 9.80001C18.2 8.10041 17.5327 6.65001 16.1 6.65001C16.1 6.65001 15.6025 5.60001 14 5.60001ZM21 7.46485C20.5221 7.46485 20.1155 7.55129 19.7422 7.67449C19.9466 8.30822 20.0667 9.01507 20.0667 9.80001C20.0667 10.2965 19.9888 10.7518 19.8898 11.1326C20.0252 11.533 20.0717 11.9733 20.0138 12.425C19.8822 13.4526 19.4832 14.151 18.982 14.5906C18.8364 14.9434 18.6371 15.2777 18.4224 15.5969C18.6875 16.141 19.0755 16.6254 19.25 16.7234V16.7344C21.1512 17.6257 24.2667 19.124 24.2667 23.3333H28C28 18.7059 23.3333 19.3703 22.75 17.387V16.7216C23.0123 16.5742 23.7635 15.5607 23.8419 14.7693C24.0482 14.7515 24.3738 14.5385 24.469 13.6901C24.5203 13.2346 24.3151 12.9783 24.1919 12.8971C24.1919 12.8971 24.5 12.2332 24.5 11.4333C24.5 9.82801 23.9437 8.45834 22.75 8.45834C22.75 8.45834 22.3356 7.46485 21 7.46485ZM7 7.46667C5.6644 7.46667 5.25 8.45834 5.25 8.45834C4.05627 8.45834 3.5 9.82983 3.5 11.4352C3.5 12.236 3.80807 12.8971 3.80807 12.8971C3.68394 12.9774 3.47966 13.2346 3.53099 13.6901C3.62619 14.5385 3.95181 14.7534 4.15807 14.7711C4.23647 15.5626 4.98773 16.576 5.25 16.7234V17.387C4.66667 19.3694 0 18.7059 0 23.3333H3.73333C3.73333 19.124 6.8488 17.6266 8.75 16.7344V16.7216C8.92453 16.6236 9.31254 16.1419 9.5776 15.5969C9.36294 15.2777 9.16357 14.9416 9.01797 14.5888C8.51677 14.1501 8.11686 13.4517 7.9862 12.425C7.9274 11.9677 7.97567 11.5203 8.1138 11.1162C8.013 10.7326 7.93333 10.2769 7.93333 9.80001C7.93333 9.02814 8.04261 8.31857 8.24141 7.67084C7.87274 7.55044 7.47133 7.46667 7 7.46667Z" />
</svg>
