<svg width="76" height="31" viewBox="0 0 76 31" fill="none" xmlns="http://www.w3.org/2000/svg">
<path d="M5 12.4913V12.0504C5.67812 12.0504 6.07368 11.9105 6.18668 11.6305V1.07065C6.07368 0.790713 5.67812 0.65081 5 0.65081V0.209961H9.76565V0.65081C9.08753 0.65081 8.69198 0.790713 8.57898 1.07065V11.6305C8.69198 11.9105 9.08753 12.0504 9.76565 12.0504V12.4913H5Z" fill="white"/>
<path d="M11.1257 12.4913V12.0504C11.8039 12.0504 12.1994 11.9105 12.3124 11.6305V1.07065C12.1994 0.790713 11.8039 0.65081 11.1257 0.65081V0.209961H14.5351L18.5472 9.97208L22.5595 0.209961H26.0066V0.65081C25.3286 0.65081 24.9331 0.790713 24.82 1.07065V11.6305C24.9331 11.9105 25.3286 12.0504 26.0066 12.0504V12.4913H21.2408V12.0504C21.9193 12.0504 22.3148 11.9105 22.4278 11.6305V2.20437L18.2085 12.4913H17.2665L12.9529 2.07835V11.6305C13.0659 11.9105 13.4615 12.0504 14.1396 12.0504V12.4913H11.1257Z" fill="white"/>
<path d="M27.3687 12.4913V12.0504C28.0466 12.0504 28.4421 11.9105 28.5551 11.6305V1.07065C28.4421 0.790713 28.0466 0.65081 27.3687 0.65081V0.209961H32.379C33.9239 0.209961 35.0976 0.538807 35.9015 1.19661C36.7178 1.85441 37.1259 2.58927 37.1259 3.40099C37.1259 4.45066 36.749 5.29739 35.9959 5.94124C35.2421 6.58503 34.1123 6.90695 32.6052 6.90695H30.9478V11.6305C31.0604 11.9105 31.4564 12.0504 32.1343 12.0504V12.4913H27.3687ZM30.9478 0.923708V6.19315H31.9459C32.9131 6.19315 33.591 5.98323 33.9802 5.56332C34.382 5.12952 34.5832 4.41565 34.5832 3.42198C34.5832 1.75649 33.6287 0.923708 31.7197 0.923708H30.9478Z" fill="white"/>
<path d="M42.7294 12.4913V12.0504C43.307 12.0504 43.6712 11.9665 43.8221 11.7985L42.7673 8.58646H39.15L38.1709 11.6726C38.2965 11.9245 38.686 12.0504 39.3388 12.0504V12.4913H36.2493V12.0504C36.9399 12.0504 37.3354 11.9034 37.4357 11.6095L41.0909 0.209961H42.6164L46.3081 11.6095C46.3958 11.9034 46.7979 12.0504 47.5138 12.0504V12.4913H42.7294ZM40.94 3.00214L39.3766 7.89365H42.5413L40.94 3.00214Z" fill="white"/>
<path d="M53.4815 0.713788C52.4266 0.713788 51.6104 1.19661 51.0328 2.16238C50.4671 3.12809 50.1846 4.42967 50.1846 6.0672C50.1846 7.97065 50.4931 9.43319 51.1079 10.4549C51.7234 11.4765 52.5396 11.9875 53.5573 11.9875C54.1721 11.9875 54.7305 11.7565 55.2336 11.2946C55.7481 10.8187 56.0997 10.2939 56.2885 9.72011L57.0602 9.97208C56.7717 10.7418 56.3131 11.3926 55.685 11.9245C55.0701 12.4423 54.2346 12.7012 53.1804 12.7012C51.4974 12.7012 50.1408 12.0924 49.1112 10.8747C48.0815 9.65713 47.5664 8.2086 47.5664 6.52909C47.5664 4.58366 48.1567 3.00911 49.3378 1.80545C50.5176 0.601852 51.8929 0 53.4622 0C53.8265 0 54.2791 0.104981 54.8189 0.314869C55.3586 0.524858 55.6664 0.62982 55.7421 0.62982C55.8924 0.62982 55.9675 0.489849 55.9675 0.209962H56.4009L56.5517 3.17008H56.1376C56.0625 2.59624 55.7355 2.0434 55.1579 1.51156C54.5802 0.979711 54.0212 0.713788 53.4815 0.713788Z" fill="white"/>
<path d="M57.7109 0.209961H67.4494V2.24635H67.0539C67.0539 1.57453 66.8339 1.13363 66.3945 0.923708H63.7763V11.6305C63.8893 11.9105 64.2848 12.0504 64.9627 12.0504V12.4913H60.1976V12.0504C60.8755 12.0504 61.271 11.9105 61.384 11.6305V0.923708H58.7658C58.3258 1.13363 58.1064 1.57453 58.1064 2.24635H57.7109V0.209961Z" fill="white"/>
<path d="M41.7051 18.043H51.839V20.1795H51.4275C51.4275 19.4746 51.1989 19.0121 50.7416 18.7919H48.0163V30.0252C48.134 30.3189 48.5461 30.4657 49.2513 30.4657V30.9283H44.2921V30.4657C44.9986 30.4657 45.4094 30.3189 45.5277 30.0252V18.7919H42.8025C42.3452 19.0121 42.1172 19.4746 42.1172 20.1795H41.7051V18.043Z" fill="white"/>
<path d="M35.0786 30.9283V30.4657C35.7998 30.4657 36.2206 30.3189 36.3409 30.0252V18.9461C36.2206 18.6524 35.7998 18.5055 35.0786 18.5055V18.043H40.1462V18.5055C39.425 18.5055 39.0043 18.6524 38.884 18.9461V30.0252C39.0043 30.3189 39.425 30.4657 40.1462 30.4657V30.9283H35.0786Z" fill="white"/>
<path d="M23.386 30.9283V30.4657C24.0906 30.4657 24.5013 30.3189 24.6183 30.0252V18.9461C24.5013 18.6524 24.0906 18.5055 23.386 18.5055V18.043H28.5899C30.1944 18.043 31.4135 18.388 32.2483 19.0782C33.0958 19.7684 33.5199 20.5393 33.5199 21.391C33.5199 22.4922 33.1291 23.3807 32.3461 24.0561C31.5637 24.7316 30.3899 25.0693 28.8245 25.0693H27.1029V30.0252C27.2206 30.3189 27.6314 30.4657 28.336 30.4657V30.9283H23.386ZM27.1029 18.7919V24.3205H28.1399C29.1442 24.3205 29.8488 24.1002 30.2529 23.6596C30.6704 23.2044 30.8791 22.4555 30.8791 21.413C30.8791 19.6656 29.888 18.7919 27.9052 18.7919H27.1029Z" fill="white"/>
<path d="M16.6951 30.9283V30.4657C17.3146 30.4657 17.7054 30.3776 17.8669 30.2014L16.735 26.8314H12.8558L11.8049 30.0693C11.9399 30.3336 12.358 30.4657 13.0579 30.4657V30.9283H9.74438V30.4657C10.4849 30.4657 10.9096 30.3116 11.0173 30.0032L14.937 18.043H16.5734L20.5337 30.0032C20.6281 30.3116 21.0595 30.4657 21.8272 30.4657V30.9283H16.6951ZM14.7754 20.9724L13.0984 26.1045H16.493L14.7754 20.9724Z" fill="white"/>
<path d="M59.5694 30.9283V30.4657C60.1888 30.4657 60.5797 30.3776 60.7412 30.2014L59.6092 26.8314H55.7301L54.6799 30.0693C54.8141 30.3336 55.2316 30.4657 55.9321 30.4657V30.9283H52.6187V30.4657C53.3591 30.4657 53.7832 30.3116 53.8915 30.0032L57.8112 18.043H59.4484L63.408 30.0032C63.5023 30.3116 63.9331 30.4657 64.7014 30.4657V30.9283H59.5694ZM57.6497 20.9724L55.972 26.1045H59.3666L57.6497 20.9724Z" fill="white"/>
<path d="M6.06134 18.767C4.98055 18.767 4.14436 19.2567 3.55212 20.2362C2.97317 21.2157 2.68337 22.5359 2.68337 24.1968C2.68337 26.1274 2.99844 27.6108 3.62923 28.6471C4.26002 29.6835 5.09687 30.2016 6.13844 30.2016C6.76924 30.2016 7.3422 29.9673 7.85667 29.4989C8.38444 29.0163 8.74471 28.4839 8.93814 27.9019L9.72911 28.1574C9.43332 28.9382 8.96339 29.5983 8.32063 30.1377C7.68918 30.6629 6.83371 30.9256 5.75225 30.9256C4.02804 30.9256 2.63817 30.3081 1.5833 29.0731C0.527769 27.838 0 26.3687 0 24.6653C0 22.6921 0.604868 21.095 1.81461 19.8742C3.02435 18.6534 4.43417 18.043 6.04206 18.043C6.41562 18.043 6.87891 18.1495 7.43194 18.3624C7.98563 18.5753 8.30069 18.6818 8.37846 18.6818C8.53267 18.6818 8.60977 18.5398 8.60977 18.2559H9.05379L9.208 21.2583H8.78326C8.70616 20.6763 8.37181 20.1155 7.77957 19.5761C7.18799 19.0367 6.61503 18.767 6.06134 18.767Z" fill="white"/>
<path d="M74.3047 30.4481L75.361 28.3426H75.6787V30.9282H66.4441V30.7066L67.5342 30.3741V18.7018L66.4441 18.2955V18H71.6566V18.2955L70.5672 18.7018V30.4481H74.3047Z" fill="white"/>
</svg>
