<svg width="16" height="16" viewBox="0 0 16 16" fill="none" xmlns="http://www.w3.org/2000/svg">
<path d="M8 16C12.4183 16 16 12.4183 16 8C16 3.58172 12.4183 0 8 0C3.58172 0 0 3.58172 0 8C0 12.4183 3.58172 16 8 16Z" fill="#25D366"/>
<path fill-rule="evenodd" clip-rule="evenodd" d="M8.26382 12.4509H8.26185C7.4657 12.4506 6.6834 12.2508 5.98858 11.8718L3.4668 12.5333L4.14167 10.0683C3.72537 9.34686 3.50632 8.52851 3.50668 7.6901C3.50772 5.06725 5.64174 2.93335 8.26378 2.93335C9.53634 2.9339 10.7307 3.4293 11.6289 4.32849C12.527 5.22762 13.0213 6.42279 13.0208 7.69385C13.0198 10.3161 10.8866 12.4498 8.26382 12.4509ZM6.10533 11.0107L6.24971 11.0964C6.85677 11.4566 7.55264 11.6472 8.26213 11.6475H8.26373C10.443 11.6475 12.2167 9.87375 12.2175 7.6936C12.218 6.63711 11.8071 5.64374 11.0606 4.89637C10.3141 4.149 9.32137 3.73722 8.26529 3.73685C6.08435 3.73685 4.31063 5.51041 4.30977 7.6904C4.30946 8.4375 4.5185 9.16508 4.91429 9.79459L5.0083 9.94418L4.60887 11.4032L6.10533 11.0107ZM10.4974 8.71807C10.5804 8.75813 10.6363 8.78519 10.6602 8.82509C10.6899 8.87465 10.6899 9.11264 10.5909 9.39033C10.4919 9.66797 10.017 9.92138 9.78861 9.95549C9.58384 9.98611 9.32469 9.99888 9.03996 9.90839C8.86732 9.85362 8.64593 9.78048 8.36235 9.65801C7.24803 9.17685 6.49499 8.09684 6.35266 7.89272C6.34269 7.87843 6.33572 7.86842 6.33183 7.86323L6.33087 7.86195C6.26797 7.77803 5.84648 7.21566 5.84648 6.63364C5.84648 6.08613 6.11543 5.79915 6.23923 5.66705C6.24771 5.658 6.25551 5.64968 6.26249 5.64205C6.37144 5.52305 6.50022 5.4933 6.57946 5.4933C6.65869 5.4933 6.73802 5.49403 6.80727 5.49751C6.81582 5.49794 6.82471 5.49789 6.83389 5.49783C6.90316 5.49743 6.98952 5.49692 7.07471 5.70155C7.10748 5.7803 7.15543 5.89704 7.20601 6.02018C7.30829 6.26918 7.4213 6.5443 7.44118 6.58412C7.4709 6.64362 7.49071 6.713 7.45109 6.79237C7.44514 6.80426 7.43964 6.81549 7.43439 6.82622C7.40463 6.88698 7.38274 6.93167 7.33223 6.99064C7.31237 7.01383 7.29185 7.03882 7.27132 7.06382C7.23043 7.11362 7.18954 7.16342 7.15393 7.19889C7.09443 7.25816 7.03248 7.32247 7.10182 7.44147C7.17115 7.56047 7.4097 7.94969 7.76306 8.26488C8.1429 8.60368 8.47303 8.74688 8.64037 8.81946C8.67305 8.83364 8.69952 8.84512 8.71894 8.85484C8.83775 8.91436 8.90709 8.9044 8.97643 8.82509C9.04577 8.74576 9.27357 8.478 9.35279 8.35902C9.43202 8.24007 9.51129 8.25988 9.62022 8.29953C9.7292 8.33924 10.3136 8.62676 10.4324 8.68625C10.4556 8.69787 10.4773 8.70835 10.4974 8.71807Z" fill="#FDFDFD"/>
</svg>
